<svg height="512" viewBox="0 0 58 58" width="512" xmlns="http://www.w3.org/2000/svg" id="fi_3145755"><g id="Page-1" fill="none" fill-rule="evenodd"><g id="002---Open-Book" fill-rule="nonzero"><path id="Shape" d="m46 18v-16.772c.0000613-.3003227-.1348558-.58477174-.3674654-.77473623-.2326096-.1899645-.5382796-.26532832-.8325346-.20526377-13.689 3.096-15.566 13.016-15.77 14.552-.02.13-.03.2-.03.2s-.01-.07-.03-.2c-.2-1.536-2.081-11.456-15.768-14.552-.294255-.06006455-.599925.01529927-.8325346.20526377-.2326096.18996449-.3675267.47441353-.3674654.77473623v16.772z" fill="#b19046"></path><path id="Shape" d="m2.38 8.52 2.883-3.6c.45381039-.57002267 1.18170489-.84815499 1.9-.726 12.43 2.223 21.837 8.866 21.837 10.806 0-1.94 9.407-8.583 21.835-10.806.7182951-.12215499 1.4461896.15597733 1.9.726l2.883 3.6v17.48h-53.238z" fill="#e4c05c"></path><path id="Shape" d="m56.6 8.086-23 10.12c-.3639232.1588286-.5993982.5179279-.6.915v-.121c0-.5522847-.4477153-1-1-1h-6c-.5522847 0-1 .4477153-1 1v.121c-.0006018-.3970721-.2360768-.7561714-.6-.915l-23-10.12c-.30874831-.13475008-.66459247-.10499277-.94667226.07916503s-.45248092.4979635-.45332774.83483497v37.816c.00060182.3970721.23607681.7561714.6.915l23 10.12c.3089106.1348201.6649539.104956.9470894-.0794397s.4524001-.4985114.4529106-.8355603v.064c0 .5522847.4477153 1 1 1h6c.5522847 0 1-.4477153 1-1v-.064c.0005105.3370489.1707751.6511646.4529106.8355603s.6381788.2142598.9470894.0794397l23-10.12c.3639232-.1588286.5993982-.5179279.6-.915v-37.816c-.0008468-.33687147-.171248-.65067717-.4533277-.83483497-.2820798-.1841578-.637924-.21391511-.9466723-.07916503z" fill="#c03a2b"></path><rect id="Rectangle-path" fill="#e64c3c" height="40" rx="1" width="8" x="25" y="18"></rect><rect id="Rectangle-path" fill="#f0c419" height="4" rx="1" width="8" x="25" y="24"></rect><rect id="Rectangle-path" fill="#f0c419" height="4" rx="1" width="8" x="25" y="48"></rect><path id="Shape" d="m53.426 27.27-15 7.059c-.3098083.145877-.6727168.1230862-.9618407-.060404-.2891239-.1834903-.4642541-.5021617-.4641593-.844596v-7.789c-.0001072-.387381.2235274-.7399757.574-.905l15-7.059c.3098083-.145877.6727168-.1230862.9618407.060404.2891239.1834903.4642541.5021617.4641593.844596v7.789c.0001072.387381-.2235274.7399757-.574.905z" fill="#fb7b76"></path><path id="Shape" d="m4.574 27.27 15 7.059c.3098083.145877.6727168.1230862.9618407-.060404.2891239-.1834903.4642541-.5021617.4641593-.844596v-7.789c.0001072-.387381-.2235274-.7399757-.574-.905l-15-7.059c-.30980828-.145877-.67271685-.1230862-.96184071.060404-.28912387.1834903-.46425409.5021617-.46415929.844596v7.789c-.00010723.387381.22352739.7399757.574.905z" fill="#fb7b76"></path><rect id="Rectangle-path" fill="#f0c419" height="4" rx="1" width="8" x="25" y="24"></rect><rect id="Rectangle-path" fill="#f0c419" height="4" rx="1" width="8" x="25" y="48"></rect><g fill="#f29c1f"><path id="Shape" d="m21 41c-.1472882.0003188-.2928028-.0321316-.426-.095l-17-8c-.32332536-.1521951-.54089517-.4653213-.57075299-.8214268-.02985782-.3561056.13253246-.7010896.426-.905s.67342763-.2357683.99675299-.0835732l17 8c.4239199.199271.6527099.6661029.5504857 1.1232322-.1022242.4571294-.508066.7820436-.9764857.7817678z"></path><path id="Shape" d="m18.977 45.048c-.1472882.0003188-.2928028-.0321316-.426-.095l-12.951-6.097c-.33382454-.1454497-.56220047-.4608601-.59619425-.8234051-.03399379-.3625449.13176848-.7149115.4327361-.919882.30096763-.2049705.68956215-.2301423 1.01445815-.0657129l12.955 6.1c.4179164.2023494.6415685.6657486.5399835 1.1188268-.1015849.4530783-.5016789.776627-.9659835.7811732z"></path><path id="Shape" d="m37 41c-.4684197.0002758-.8742615-.3246384-.9764857-.7817678-.1022242-.4571293.1265658-.9239612.5504857-1.1232322l17-8c.4998177-.2352733 1.0957267-.0208177 1.331.479s.0208177 1.0957267-.479 1.331l-17 8c-.1332728.0626474-.2787372.0950866-.426.095z"></path><path id="Shape" d="m39.023 45.048c-.4643046-.0045462-.8643986-.3280949-.9659835-.7811732-.101585-.4530782.1220671-.9164774.5399835-1.1188268l12.955-6.1c.324896-.1644294.7134905-.1392576 1.0144581.0657129.3009677.2049705.4667299.5573371.4327362.919882-.0339938.362545-.2623698.6779554-.5961943.8234051l-12.954 6.1c-.1335877.0612689-.2790382.0923394-.426.091z"></path></g></g></g></svg>
